<?xml version="1.0" encoding="UTF-8" standalone="no"?>
<!-- Generator: Adobe Illustrator 16.0.2, SVG Export Plug-In . SVG Version: 6.00 Build 0)  -->

<svg
   xmlns:dc="http://purl.org/dc/elements/1.1/"
   xmlns:cc="http://creativecommons.org/ns#"
   xmlns:rdf="http://www.w3.org/1999/02/22-rdf-syntax-ns#"
   xmlns:svg="http://www.w3.org/2000/svg"
   xmlns="http://www.w3.org/2000/svg"
   xmlns:xlink="http://www.w3.org/1999/xlink"
   xmlns:sodipodi="http://sodipodi.sourceforge.net/DTD/sodipodi-0.dtd"
   xmlns:inkscape="http://www.inkscape.org/namespaces/inkscape"
   width="600"
   height="600"
   enable-background="new 0 0 600 600"
   version="1.1"
   viewBox="0 0 480 480"
   xml:space="preserve"
   id="svg142"
   sodipodi:docname="cupcakeLogo.svg"
   inkscape:version="0.92.3 (2405546, 2018-03-11)"><sodipodi:namedview
   pagecolor="#ffffff"
   bordercolor="#666666"
   borderopacity="1"
   objecttolerance="10"
   gridtolerance="10"
   guidetolerance="10"
   inkscape:pageopacity="0"
   inkscape:pageshadow="2"
   inkscape:window-width="1920"
   inkscape:window-height="1016"
   id="namedview144"
   showgrid="false"
   inkscape:zoom="1.3333333"
   inkscape:cx="300"
   inkscape:cy="360"
   inkscape:window-x="0"
   inkscape:window-y="27"
   inkscape:window-maximized="1"
   inkscape:current-layer="g140" /><metadata
   id="metadata2"><rdf:RDF><cc:Work
       rdf:about=""><dc:format>image/svg+xml</dc:format><dc:type
         rdf:resource="http://purl.org/dc/dcmitype/StillImage" /><dc:title /></cc:Work></rdf:RDF></metadata><defs
   id="defs37"><linearGradient
   id="linearGradient5401"><stop
     stop-color="#fff"
     offset="0"
     id="stop4" /><stop
     stop-color="#fff"
     stop-opacity="0"
     offset="1"
     id="stop6" /></linearGradient><linearGradient
   id="linearGradient5379"><stop
     stop-color="#fca"
     offset="0"
     id="stop9" /><stop
     stop-color="#fff4e6"
     offset="1"
     id="stop11" /></linearGradient>
	
	
	<linearGradient
   id="SVGID_1_"
   x1="327.19"
   x2="327.19"
   y1="306.12"
   y2="469.7"
   gradientUnits="userSpaceOnUse">
		<stop
   stop-color="#FFFAF9"
   offset="0"
   id="stop14" />
		<stop
   stop-color="#fca"
   offset="1"
   id="stop16" />
	</linearGradient>
	
	
	
	
	
	<linearGradient
   id="SVGID_5_"
   x1="392.6"
   x2="361.73"
   y1="186.23"
   y2="161.24"
   gradientUnits="userSpaceOnUse">
		<stop
   stop-color="#003623"
   offset="0"
   id="stop19" />
		<stop
   stop-color="#4C8A00"
   offset="1"
   id="stop21" />
	</linearGradient>
	
	
	
	
	
	
	
	
	
	
	
	
	
	
	
	
	
	
	
	
	
	
	
	
	
	
	
	
<linearGradient
   id="linearGradient5381"
   x1="308.37"
   x2="336.35"
   y1="301.81"
   y2="179.17"
   gradientUnits="userSpaceOnUse"
   xlink:href="#linearGradient5379" /><linearGradient
   id="linearGradient5403"
   x1="264.51"
   x2="321.75"
   y1="237.68"
   y2="237.68"
   gradientUnits="userSpaceOnUse"
   xlink:href="#linearGradient5401" /><linearGradient
   id="linearGradient5411"
   x1="385.69"
   x2="356.77"
   y1="252.37"
   y2="221.41"
   gradientUnits="userSpaceOnUse"
   xlink:href="#linearGradient5401" /><linearGradient
   id="linearGradient5419"
   x1="324.82"
   x2="326.32"
   y1="262.69"
   y2="222.43"
   gradientUnits="userSpaceOnUse"><stop
     stop-color="#fff"
     offset="0"
     id="stop27" /><stop
     stop-color="#fff"
     stop-opacity="0"
     offset="1"
     id="stop29" /></linearGradient><linearGradient
   id="linearGradient5427"
   x1="336.47"
   x2="419.49"
   y1="292.22"
   y2="281.05"
   gradientUnits="userSpaceOnUse"><stop
     stop-color="#fff"
     offset="0"
     id="stop32" /><stop
     stop-color="#fff"
     stop-opacity="0"
     offset="1"
     id="stop34" /></linearGradient></defs>
<g
   transform="matrix(1.2546 0 0 1.2281 -103.27 -49.087)"
   id="g39">
		
			
		
	</g>
<g
   transform="translate(-27.963 4.9375)"
   id="g140"><circle
   cx="268.76"
   cy="234.26"
   r="239.62"
   fill="#fff"
   id="circle41" /><use
   transform="matrix(-1 0 0 1 535.93 0)"
   width="100%"
   height="100%"
   xlink:href="#g5628"
   id="use43" /><g
   id="g5628"
   transform="rotate(45 248 -9.5968)"><rect
     x="441.76"
     y="163.89"
     width="8.8118"
     height="101.57"
     fill="#f9f9f9"
     stroke="#7f726a"
     stroke-width=".48939"
     id="rect45" /><rect
     x="438.65"
     y="233.46"
     width="15.034"
     height="144.37"
     ry="3.5496"
     fill="#7f726a"
     id="rect47" /><path
     d="m425.09-82.541s9.2277 4.9181 17.931 29.642 7.532 32.322 9.2284 58.338c1.2405 19.024 0.57746 204.39 0.57746 204.39-0.0244 0.88606-0.7136 1.6-1.6 1.6h-10.137c-0.8864 0-1.6229-0.7139-1.6-1.6 0 0 0.44218-201.99-3.7775-239.9s-16.358-51.289-10.623-52.471z"
     fill="#7f726a"
     id="path49" /><rect
     x="425.75"
     y="221.64"
     width="40.834"
     height="7.0178"
     ry=".17255"
     fill="#7f726a"
     id="rect51" /><ellipse
     id="path5591"
     cx="446.16"
     cy="243.66"
     rx="4.2"
     ry="2.2"
     fill="#f9f9f9" /><use
     id="use5602"
     transform="translate(0,16)"
     width="100%"
     height="100%"
     xlink:href="#path5591" /><use
     id="use5604"
     transform="translate(0,16)"
     width="100%"
     height="100%"
     xlink:href="#use5602" /><use
     id="use5606"
     transform="translate(0,16)"
     width="100%"
     height="100%"
     xlink:href="#use5604" /><use
     id="use5608"
     transform="translate(0,16)"
     width="100%"
     height="100%"
     xlink:href="#use5606" /><use
     id="use5610"
     transform="translate(0,16)"
     width="100%"
     height="100%"
     xlink:href="#use5608" /><use
     id="use5612"
     transform="translate(0,16)"
     width="100%"
     height="100%"
     xlink:href="#use5610" /><use
     transform="translate(0,16)"
     width="100%"
     height="100%"
     xlink:href="#use5612"
     id="use60" /></g><g
   transform="translate(-60,-60)"
   id="g134"><ellipse
   cx="326.04"
   cy="322.95"
   rx="103.36"
   ry="38.591"
   fill="#e8ba52"
   id="ellipse63" /><path
   d="m431.69 332h-209l21 94h0.264s-9e-3 -0.194-9e-3 -0.166c0 11.275 38.311 20.291 85.57 20.291s85.57-8.953 85.57-20.229c0-0.028-9e-3 0.104-9e-3 0.104h9e-3z"
   fill="url(#SVGID_1_)"
   id="path65" />
		
			<polyline
   points="225.69 327.5 240.64 335.5 255.58 327.5 270.54 335.5 285.49 327.5 300.44 335.5 315.4 327.5"
   fill="#fff"
   id="polyline67" />
			<polyline
   points="225.69 327.5 240.64 335.5 255.58 327.5 270.54 335.5 285.49 327.5 300.44 335.5 315.4 327.5"
   fill="none"
   stroke="#fffaf9"
   stroke-miterlimit="10"
   stroke-width="9"
   id="polyline69" />
		
		
			<polyline
   points="311.69 327.5 326.64 335.5 341.58 327.5 356.54 335.5 371.49 327.5 386.44 335.5 401.4 327.5"
   fill="#fff"
   id="polyline71" />
			<polyline
   points="311.69 327.5 326.64 335.5 341.58 327.5 356.54 335.5 371.49 327.5 386.44 335.5 401.4 327.5"
   fill="none"
   stroke="#fffaf9"
   stroke-miterlimit="10"
   stroke-width="9"
   id="polyline73" />
		
		
			<polyline
   points="339.69 327.5 354.64 335.5 369.58 327.5 384.54 335.5 399.49 327.5 414.44 335.5 429.4 327.5"
   fill="#fff"
   id="polyline75" />
			<polyline
   points="339.69 327.5 354.64 335.5 369.58 327.5 384.54 335.5 399.49 327.5 414.44 335.5 429.4 327.5"
   fill="none"
   stroke="#fffaf9"
   stroke-miterlimit="10"
   stroke-width="9"
   id="polyline77" />
		
	
		
			<radialGradient
   id="SVGID_2_"
   cx="407.64"
   cy="214.95"
   r="23.989"
   gradientTransform="matrix(.9674 .2532 -.2532 .9674 31.16 -86.971)"
   gradientUnits="userSpaceOnUse">
			<stop
   stop-color="#ED1C24"
   offset="0"
   id="stop79" />
			<stop
   stop-color="#BE1E2D"
   offset="1"
   id="stop81" />
		</radialGradient>
		<path
   d="m397.06 227c-3.613 13.806-17.735 22.067-31.54 18.453-13.806-3.613-22.066-17.733-18.453-31.539 3.613-13.805 13.679-15.158 29.586-10.994 17.206 4.503 24.022 10.274 20.407 24.08z"
   fill="url(#SVGID_2_)"
   id="path84" />
		
			<radialGradient
   id="SVGID_3_"
   cx="398.31"
   cy="191.41"
   r="8.8549"
   gradientTransform="matrix(.9674 .2532 -.3104 1.1858 36.129 -106.94)"
   gradientUnits="userSpaceOnUse">
			<stop
   stop-color="#F4F4F4"
   offset="0"
   id="stop86" />
			<stop
   stop-color="#fff"
   stop-opacity="0"
   offset="1"
   id="stop88" />
		</radialGradient>
		<path
   d="m368.78 222.66c-1.783 6.813-6.249 11.545-9.973 10.57-3.725-0.975-5.297-7.288-3.514-14.101s6.247-11.546 9.972-10.571c3.724 0.976 5.298 7.289 3.515 14.102z"
   fill="url(#SVGID_3_)"
   id="path91" />
		
			<radialGradient
   id="SVGID_4_"
   cx="407.86"
   cy="196.26"
   r="4.4905"
   gradientTransform="matrix(.9674 .2532 -.2532 .9674 31.16 -86.972)"
   gradientUnits="userSpaceOnUse">
			<stop
   offset="0"
   id="stop93" />
			<stop
   stop-opacity="0"
   offset="1"
   id="stop95" />
		</radialGradient>
		<path
   d="m382.04 207.73c-0.188 0.717-3.028 0.595-6.345-0.273s-5.854-2.154-5.666-2.871 3.028-0.595 6.346 0.273c3.317 0.868 5.854 2.154 5.665 2.871z"
   fill="url(#SVGID_4_)"
   id="path98" />
	<g
   fill="url(#linearGradient5381)"
   id="g102">
		<path
   d="m327.19 301.81c-17.816 11.189-29.254 19.01-38.721-0.984-6.086 13.886-85.839 12.138-51.354-8.412-8.79-5.554-7.535-12.16-3.478-23.269 3.381-9.441 16.356-22.081 26.499-22.081-2.028-25.549 17.564-27.195 36.158-33.845 24.396-8.725 27.515-34.786 30.896-50.336 10.143 16.661 5.688 46.101 29.355 51.654 15.551 3.889 33.708 3.379 38.406 28.883 1.912 10.378 16.964 5.442 30.872 22.147 6.146 7.383 12.883 38.605 0.353 41.961-23.068 6.178-12.627-21.155-28.54 1.664-8.383 6.668-13.963-21.211-30.201-11.41-16.896 10.197-10.89 18.121-27.745 7.383"
   fill="url(#linearGradient5381)"
   id="path100" />
	</g><polygon
   points="376.66 205.92 375.69 144 380.69 144"
   fill="url(#SVGID_5_)"
   id="polygon104" /><g
   opacity=".5"
   id="g122">
		<polygon
   points="228.41 340.12 239.75 346.23 254.01 432.58 246.69 425.5"
   id="polygon106" />
		<polygon
   points="255.41 340.32 265.75 346.54 276.95 438.62 268.1 433"
   id="polygon108" />
		<polygon
   points="283.21 339.16 293.32 345.84 301.15 441.33 294.35 438.11"
   id="polygon110" />
		<polygon
   points="312.11 340.17 322.22 346.84 330.27 438.97 323.35 439.1"
   id="polygon112" />
		<polygon
   points="342.26 338.52 351.78 346.01 353.24 438.61 345.25 438.05"
   id="polygon114" />
		<polygon
   points="371.38 341.54 380.7 349.29 379.15 432.96 372.64 438.18"
   id="polygon116" />
		<polygon
   points="397.49 342.25 407.16 349.8 400.02 425.37 393.93 432.55"
   id="polygon118" />
		<polygon
   points="418.36 343.28 424.05 350.11 415.3 419.13 411.05 425.72"
   id="polygon120" />
	</g><g
   id="g132"><path
     d="m321.75 207.2c-35.524 25.375-33.792 12.913-47.704 26.39s-1.0803 23.908-8.6274 33.495c-7.5876 9.6382 34.083-48.395 56.332-59.884z"
     fill="url(#linearGradient5403)"
     id="path124" /><path
     d="m356.77 221.41c21.822 6.5974 34.51 13.702 34.51 28.927s-26.39-22.837-34.51-28.927z"
     fill="url(#linearGradient5411)"
     id="path126" /><path
     d="m244.1 300.58c31.972-1.015 59.377-14.21 75.616-13.702 16.24 0.50749 81.199 10.15 92.364 4.5674 11.165-5.5824 12.687-18.27-16.747-28.42s-140.58 34.51-151.23 37.554z"
     fill="url(#linearGradient5427)"
     id="path128" /><path
     d="m326.32 222.43c24.867 12.687 31.267 12.49 32.987 27.405 0 0-28.478 2.9112-58.362 16.747-83.418 38.622-1.5225-11.165 25.375-44.152z"
     fill="url(#linearGradient5419)"
     id="path130" /></g></g><g
   aria-label="NINJA CUPCAKE"
   style="font-size:32px;line-height:1.25;font-family:'king cooL KC';letter-spacing:0px;word-spacing:0px;fill:#d71d28;stroke-width:0.68387002"
   id="text138"><path
     d="m 209.68201,38.219406 q 0.59375,0 1.125,0.9375 0,0.984375 -0.5,2 l -0.1875,11.5 v 5.25 l 0.125,1.375 q 0,1.6875 -1,1.6875 -1.375,0 -1.375,-1.875 -0.25,-0.375 -0.25,-1.0625 -0.57813,-0.703125 -1.125,-2.4375 -0.25,-0.09375 -0.9375,-2 l -0.6875,-1.6875 q -2.17188,-6.765625 -2.625,-6.765625 -0.125,0.265625 -0.125,1 l 0.0625,7.890625 q -0.17188,1.390625 -0.375,6.25 -0.29688,0.8125 -0.9375,0.8125 h -0.25 q -0.5625,0 -0.5625,-1.375 0,-12.5 0,-17.765625 v -1.1875 q 0,-2 1.25,-2 1.625,0.15625 1.625,1.4375 0,0.40625 2.9375,8.828125 0,0.859375 0.625,1.5 0.9375,3.0625 1.4375,3.0625 l 0.25,0.0625 q 0.20312,0 0.21875,-6.40625 0.0312,-6.40625 0.0312,-8.03125 0,-1 1.25,-1 z"
     style="font-size:32px;font-family:'king cooL KC';fill:#d71d28;stroke-width:0.68387002"
     id="path4654" /><path
     d="m 214.77576,35.328781 h 1.625 q 4.01562,-0.265625 3.5625,1.375 -0.26563,0.4375 -0.8125,0.4375 l -0.6875,-0.0625 q -0.64063,0 -1.1875,17.6875 v 3.6875 q 0,0.5 1.1875,0.5 0.875,0.140625 0.875,0.5 h 0.0625 q 0,1.109375 -1.625,1.25 l -2.6875,0.0625 h -1.375 q -2,0 -2,-0.5 l -0.1875,-0.5625 q 0.42187,-1.0625 1.5,-1.0625 h 1.625 q 0.625,0 0.625,-1.25 0.6875,-17.546875 0.9375,-19.8125 0,-0.3125 -1.875,-0.3125 -1.125,-0.296875 -1.125,-1.125 v -0.0625 q 0,-0.75 1.5625,-0.75 z"
     style="font-size:32px;font-family:'king cooL KC';fill:#d71d28;stroke-width:0.68387002"
     id="path4656" /><path
     d="m 230.49451,38.219406 q 0.59375,0 1.125,0.9375 0,0.984375 -0.5,2 l -0.1875,11.5 v 5.25 l 0.125,1.375 q 0,1.6875 -1,1.6875 -1.375,0 -1.375,-1.875 -0.25,-0.375 -0.25,-1.0625 -0.57813,-0.703125 -1.125,-2.4375 -0.25,-0.09375 -0.9375,-2 l -0.6875,-1.6875 q -2.17188,-6.765625 -2.625,-6.765625 -0.125,0.265625 -0.125,1 l 0.0625,7.890625 q -0.17188,1.390625 -0.375,6.25 -0.29688,0.8125 -0.9375,0.8125 h -0.25 q -0.5625,0 -0.5625,-1.375 0,-12.5 0,-17.765625 v -1.1875 q 0,-2 1.25,-2 1.625,0.15625 1.625,1.4375 0,0.40625 2.9375,8.828125 0,0.859375 0.625,1.5 0.9375,3.0625 1.4375,3.0625 l 0.25,0.0625 q 0.20312,0 0.21875,-6.40625 0.0312,-6.40625 0.0312,-8.03125 0,-1 1.25,-1 z"
     style="font-size:32px;font-family:'king cooL KC';fill:#d71d28;stroke-width:0.68387002"
     id="path4658" /><path
     d="m 240.91638,35.219406 h 0.3125 q 1.70313,0 1.875,0.4375 v 0.1875 q 0,0.859375 -1.375,1.1875 -1.0625,0 -1.0625,0.875 -0.1875,0 -0.4375,11.1875 -0.48437,9.203125 -1.5,10.125 -1.4375,1.296875 -3.0625,1.75 -1.28125,0 -3.0625,-3.125 l -0.0625,-0.4375 q 0,-0.40625 0.75,-0.9375 0.34375,0 2.0625,2.0625 l 0.1875,0.125 h 0.375 q 1.40625,0 1.9375,-2.0625 0.57813,-0.828125 0.875,-13 l -0.125,-1.5 v -4.1875 q -0.0469,-0.875 -0.3125,-0.875 -0.53125,0 -2.125,0.4375 -0.39062,0 -0.5,-1.1875 0,-1 1.75,-1 z"
     style="font-size:32px;font-family:'king cooL KC';fill:#d71d28;stroke-width:0.68387002"
     id="path4660" /><path
     d="m 248.04138,37.125656 q 1.4375,0.109375 2.07813,2.03125 0.64062,1.921875 1.15625,3.515625 0.51562,1.578125 1.39062,7.765625 0.15625,0 0.875,8.375 0.25,0.34375 0.375,2.125 0,0.53125 -1.0625,0.8125 -0.98437,0 -1.125,-2.5 v -1.75 q -0.35937,-5.125 -0.6875,-5.125 l -0.75,-0.125 q -4.8125,0.15625 -4.8125,1.0625 l -1.4375,7.4375 q -0.34375,0.3125 -0.625,0.3125 -0.9375,-0.1875 -0.9375,-0.9375 2.375,-12.96875 3.5625,-20.5 0.1875,-0.125 0.5625,-1.5625 0.76563,-0.9375 1.4375,-0.9375 z m -1.75,12.25 v 0.75 q 0,0.4375 2,0.4375 h 1 q 1.6875,0 1.6875,-0.4375 l 0.0625,-0.4375 -0.125,-0.5625 v -1 q -0.3125,-0.578125 -1.375,-5.375 -0.79687,-2.5625 -1.4375,-2.5625 h -0.0625 q -0.10937,0 -0.5,1.8125 -0.42187,1.359375 -1.125,6.75 -0.10937,0 -0.125,0.625 z"
     style="font-size:32px;font-family:'king cooL KC';fill:#d71d28;stroke-width:0.68387002"
     id="path4662" /><path
     d="m 270.47888,38.500656 q 1.9375,0.234375 1.9375,1.25 l 0.0625,0.0625 q 0,0.609375 -1,0.8125 h -1 q -2.25,0 -3.3125,2.9375 -1.5,2.828125 -1.5,7 v 0.125 q 0,2.703125 0.4375,4.8125 0.0937,0.921875 1.4375,3.0625 0.70313,1.0625 1.375,1.0625 l 2.5,-0.125 0.0625,0.25 q 0,1.09375 -1.625,1.6875 -0.75,0.1875 -1.375,0.1875 h -0.3125 q -0.90625,0 -2.75,-2.9375 -0.5625,-1.15625 -0.5625,-1.5 -0.54687,-0.8125 -1,-7.5625 1.14063,-7.9375 3.5625,-9.8125 1.65625,-1.3125 3.0625,-1.3125 z"
     style="font-size:32px;font-family:'king cooL KC';fill:#d71d28;stroke-width:0.68387002"
     id="path4664" /><path
     d="m 274.35388,39.688156 q 0.9375,0 0.9375,1.625 v 4.0625 q 0,11.5625 0.6875,12.8125 0.46875,1.375 0.75,1.375 0.53125,0 1.5625,-2.5625 1.5,-2.65625 1.5,-4.875 0.21875,0 0.625,-7.375 l -0.0625,-1.1875 q 0.23438,-3.25 0.8125,-3.25 l 0.8125,-0.3125 q 0.75,0 1,1.75 v 0.3125 l -0.375,3.875 v 0.375 q 0,6.984375 0.875,11.375 l 0.5,3.25 q -0.26562,0.75 -1.3125,0.75 -0.9375,0 -1.1875,-4.9375 -0.20312,-0.4375 -0.3125,-0.4375 h -0.125 q -0.46875,0.53125 -2.4375,4.3125 -1,1.25 -1.9375,1.25 -1.04687,0 -2.1875,-1.6875 -1.0625,-3.140625 -1.375,-18.125 -0.0937,0 -0.125,-1.375 0,-0.71875 1.375,-1 z"
     style="font-size:32px;font-family:'king cooL KC';fill:#d71d28;stroke-width:0.68387002"
     id="path4666" /><path
     d="m 290.79138,35.297531 h 0.1875 q 1.35938,0 3,2 0.5625,1.296875 0.5625,3.0625 0,3.46875 -4.5,6.5 l -1.3125,0.375 -0.9375,-0.125 v 0.0625 l 0.75,11.6875 v 0.5 l 0.0625,0.5625 q 0,1.171875 -0.9375,1.5625 -1.3125,-0.390625 -1.3125,-1.3125 v -2.9375 q -0.375,-7.421875 -1.1875,-18.375 l -0.0625,-1.3125 q 0,-0.9375 1.125,-0.9375 l 0.875,0.1875 2.1875,-1.1875 q 0.875,-0.3125 1.5,-0.3125 z m -3.4375,5.9375 q 0.26563,3.25 0.5,3.25 l 0.625,0.25 q 1.64063,-0.46875 2.8125,-2 1.25,-1.609375 1.25,-2.875 v -0.5625 q 0,-1.6875 -1.5625,-1.6875 -2.21875,0 -3.3125,2.8125 -0.3125,0.390625 -0.3125,0.8125 z"
     style="font-size:32px;font-family:'king cooL KC';fill:#d71d28;stroke-width:0.68387002"
     id="path4668" /><path
     d="m 302.29138,38.500656 q 1.9375,0.234375 1.9375,1.25 l 0.0625,0.0625 q 0,0.609375 -1,0.8125 h -1 q -2.25,0 -3.3125,2.9375 -1.5,2.828125 -1.5,7 v 0.125 q 0,2.703125 0.4375,4.8125 0.0937,0.921875 1.4375,3.0625 0.70313,1.0625 1.375,1.0625 l 2.5,-0.125 0.0625,0.25 q 0,1.09375 -1.625,1.6875 -0.75,0.1875 -1.375,0.1875 h -0.3125 q -0.90625,0 -2.75,-2.9375 -0.5625,-1.15625 -0.5625,-1.5 -0.54687,-0.8125 -1,-7.5625 1.14063,-7.9375 3.5625,-9.8125 1.65625,-1.3125 3.0625,-1.3125 z"
     style="font-size:32px;font-family:'king cooL KC';fill:#d71d28;stroke-width:0.68387002"
     id="path4670" /><path
     d="m 310.10388,37.125656 q 1.4375,0.109375 2.07813,2.03125 0.64062,1.921875 1.15625,3.515625 0.51562,1.578125 1.39062,7.765625 0.15625,0 0.875,8.375 0.25,0.34375 0.375,2.125 0,0.53125 -1.0625,0.8125 -0.98437,0 -1.125,-2.5 v -1.75 q -0.35937,-5.125 -0.6875,-5.125 l -0.75,-0.125 q -4.8125,0.15625 -4.8125,1.0625 l -1.4375,7.4375 q -0.34375,0.3125 -0.625,0.3125 -0.9375,-0.1875 -0.9375,-0.9375 2.375,-12.96875 3.5625,-20.5 0.1875,-0.125 0.5625,-1.5625 0.76563,-0.9375 1.4375,-0.9375 z m -1.75,12.25 v 0.75 q 0,0.4375 2,0.4375 h 1 q 1.6875,0 1.6875,-0.4375 l 0.0625,-0.4375 -0.125,-0.5625 v -1 q -0.3125,-0.578125 -1.375,-5.375 -0.79687,-2.5625 -1.4375,-2.5625 h -0.0625 q -0.10937,0 -0.5,1.8125 -0.42187,1.359375 -1.125,6.75 -0.10937,0 -0.125,0.625 z"
     style="font-size:32px;font-family:'king cooL KC';fill:#d71d28;stroke-width:0.68387002"
     id="path4672" /><path
     d="m 319.68201,35.156906 h 0.0625 q 0.78125,0 1.0625,0.8125 -0.6875,4.71875 -0.6875,7.25 v 0.25 h 0.125 q 0.5625,0 1.8125,-2.25 1.35937,-1.703125 2.625,-5.25 0.28125,-0.4375 1.0625,-0.4375 0.64062,0 0.8125,0.9375 -0.76563,2.5 -1.625,3.5 -3.1875,4.390625 -3.1875,5.25 0,0.5625 0.875,3.875 0.45312,2.53125 0.875,3.5 0.20312,0.04687 0.9375,2.375 1.4375,3.0625 2.1875,4.3125 l 0.0625,0.5 q 0,0.8125 -0.6875,0.8125 -1.03125,0 -1.375,-1.375 -0.73438,-0.71875 -2.3125,-4.8125 -0.6875,-1.765625 -1.875,-6.4375 l -0.375,-0.4375 h -0.0625 q -0.625,0 -0.8125,10.0625 -0.0781,3.5 -0.5625,3.5 l -0.375,0.0625 q -1,0 -1,-1.5625 0.45312,-12.484375 1,-14.375 l -0.0625,-1 q 0.375,-7.046875 0.875,-8.6875 0.28125,-0.375 0.625,-0.375 z"
     style="font-size:32px;font-family:'king cooL KC';fill:#d71d28;stroke-width:0.68387002"
     id="path4674" /><path
     d="m 330.49451,38.110031 h 1.9375 q 2.1875,0 2.5625,0.8125 0.1875,0.234375 0.1875,0.5625 h 0.0625 q 0,0.8125 -2.125,0.8125 -2.75,0.15625 -2.75,0.4375 -0.6875,2.75 -0.6875,6.5 0,1 0.8125,1 h 0.5625 l 2.375,-0.0625 q 0.92187,0 1.5625,0.875 v 0.1875 q 0,0.546875 -4.3125,1.3125 -1,0.421875 -1,0.6875 v 2.5 l 0.0625,0.6875 -0.125,0.375 q 0.21875,0 0.375,3.125 0.23437,1.125 1.125,1.125 l 3.875,0.3125 q 0.42187,0.265625 0.875,0.8125 -0.67188,0.9375 -2.5,0.9375 l -0.0625,0.0625 q -4.625,-0.125 -4.625,-0.75 -0.3125,-0.125 -0.5,-0.8125 l 0.0625,-2.5625 v -0.3125 l -0.1875,-8.75 v -2.75 q 0,-6.046875 1.5,-6.875 0.35937,-0.25 0.9375,-0.25 z"
     style="font-size:32px;font-family:'king cooL KC';fill:#d71d28;stroke-width:0.68387002"
     id="path4676" /></g>

</g></svg>